<?xml version="1.0" standalone="no"?>
<!DOCTYPE svg PUBLIC "-//W3C//DTD SVG 20010904//EN"
 "http://www.w3.org/TR/2001/REC-SVG-20010904/DTD/svg10.dtd">
<svg version="1.0" xmlns="http://www.w3.org/2000/svg"
 width="100.000000pt" height="100.000000pt" viewBox="0 0 100.000000 100.000000"
 preserveAspectRatio="xMidYMid meet">

<g transform="translate(0.000000,100.000000) scale(0.100000,-0.100000)"
fill="#000000" stroke="none">
<path d="M373 939 c-70 -27 -155 -106 -189 -176 -37 -75 -44 -183 -16 -270 38
-120 110 -228 260 -387 l72 -78 73 78 c149 159 221 267 259 387 28 87 21 195
-16 270 -35 72 -119 149 -191 176 -74 28 -180 27 -252 0z m205 -327 c29 -81
52 -151 52 -155 0 -5 -10 -7 -22 -5 -15 2 -25 15 -36 46 l-14 43 -61 -3 -60
-3 -15 -42 c-10 -31 -19 -43 -33 -43 -10 0 -19 3 -19 8 0 4 23 73 52 154 49
137 55 148 78 148 23 0 29 -11 78 -148z"/>
<path d="M474 640 c-12 -33 -19 -62 -16 -65 11 -10 82 -5 82 7 0 18 -33 118
-39 118 -3 0 -15 -27 -27 -60z"/>
</g>
</svg>
