<?xml version="1.0" standalone="no"?>
<!DOCTYPE svg PUBLIC "-//W3C//DTD SVG 20010904//EN"
 "http://www.w3.org/TR/2001/REC-SVG-20010904/DTD/svg10.dtd">
<svg version="1.0" xmlns="http://www.w3.org/2000/svg"
 width="100.000000pt" height="100.000000pt" viewBox="0 0 100.000000 100.000000"
 preserveAspectRatio="xMidYMid meet">

<g transform="translate(0.000000,100.000000) scale(0.100000,-0.100000)"
fill="#000000" stroke="none">
<path d="M373 939 c-70 -27 -155 -106 -189 -176 -37 -75 -44 -183 -16 -270 38
-120 110 -228 260 -387 l72 -78 73 78 c149 159 221 267 259 387 28 87 21 195
-16 270 -35 72 -119 149 -191 176 -74 28 -180 27 -252 0z m204 -194 c40 -28
37 -89 -6 -122 -11 -8 -12 -12 -3 -13 6 0 21 -9 32 -20 29 -29 26 -81 -6 -111
-22 -21 -37 -24 -115 -27 l-89 -4 0 156 0 156 83 0 c57 0 89 -5 104 -15z"/>
<path d="M440 675 l0 -45 41 0 c52 0 79 15 79 43 0 35 -19 47 -72 47 l-48 0 0
-45z"/>
<path d="M440 540 l0 -50 53 0 c40 0 58 5 70 18 40 44 9 82 -69 82 l-54 0 0
-50z"/>
</g>
</svg>
